<svg xmlns="http://www.w3.org/2000/svg" width="69" height="86" viewBox="0 0 69 86"><path fill="#fff" d="M1 78V27h1.83a7.07 7.07 0 0 0 6.84 2.15c.94 3.33 5.58 5.85 11.16 5.85 4.7 0 8.75-1.8 10.46-4.35A11.84 11.84 0 0 0 40.67 35c5.5 0 10.1-3.44 11.12-8H52v8h6v.06a9.92 9.92 0 0 1 11 9.86v19.83a9.92 9.92 0 0 1-11 9.86V75h-6v3h-.06a7.08 7.08 0 0 1-7.02 8H8.08a7.08 7.08 0 0 1-7.02-8zm51-28.83V60.5c0 .17 0 .34.02.5H52v5h4.3a5.68 5.68 0 0 0 7.03-5.5V49.17a5.67 5.67 0 0 0-8-5.17H52v5.17zM15 72V41h-5v31zm14 0V41h-5v31zm15 0V41h-6v31zM23.67 1c5.76 0 10.52 4.3 11.24 9.87a12.53 12.53 0 0 1 5.76-1.37C46.93 9.5 52 13.94 52 19.42c0 5.47-5.07 9.91-11.33 9.91-3.9 0-7.34-1.72-9.38-4.34-1.71 2.55-5.75 4.34-10.46 4.34-5.58 0-10.22-2.52-11.16-5.84A7.1 7.1 0 0 1 1 16.59a7.08 7.08 0 0 1 11.41-5.61A11.34 11.34 0 0 1 23.67 1z"/></svg>