<svg xmlns="http://www.w3.org/2000/svg" width="81" height="70" viewBox="0 0 81 70"><path fill="#fff" d="M8.5 10h17.58a4.4 4.4 0 0 1-.08-.83V3.33C26 1.5 27.12 0 28.5 0h25C54.88 0 56 1.5 56 3.33v5.84c0 .28-.03.56-.08.83H73.5a7.5 7.5 0 0 1 7.5 7.5v45a7.5 7.5 0 0 1-7.5 7.5h-65A7.5 7.5 0 0 1 1 62.5v-45A7.5 7.5 0 0 1 8.5 10zm11.94 35.7a7 7 0 0 0 4.78 8.67l21.48 6.19a7 7 0 0 0 8.67-4.79l6.19-21.47a7 7 0 0 0-4.79-8.67l-21.47-6.2a7 7 0 0 0-8.67 4.8zm10.34-13.98a7 7 0 0 1 8.66-4.78l9.83 2.84a7 7 0 0 1 4.79 8.66l-2.84 9.83a7 7 0 0 1-8.66 4.79l-9.84-2.84a7 7 0 0 1-4.78-8.66zm6.34 7.16a4.04 4.04 0 1 0 5-2.76 4.04 4.04 0 0 0-5 2.76zM31 6.5c0 .83.67 1.5 1.5 1.5h17a1.5 1.5 0 1 0 0-3h-17c-.83 0-1.5.67-1.5 1.5z"/></svg>