<svg xmlns="http://www.w3.org/2000/svg" width="33" height="33" viewBox="0 0 33 33"><path fill="#252825" d="M16.5 0a16.5 16.5 0 1 1 0 33 16.5 16.5 0 0 1 0-33zM3.3 16.5c0 3.19 1.13 6.1 3 8.39 1.47-2.42 5-7.06 11.37-8.85-.42-.9-.85-1.76-1.28-2.58-6.02 2.34-10.56 2.49-13.07 2.29l-.02.75zm13.2 13.2c1.89 0 3.69-.4 5.31-1.11-.66-3.63-1.8-7.1-3.12-10.24-3.73 1.02-7.63 3.4-10.55 8.37a13.15 13.15 0 0 0 8.36 2.98zM10.86 4.56a13.23 13.23 0 0 0-7.19 8.81c3.36.03 7.82-.54 11.64-1.9a69.13 69.13 0 0 0-4.45-6.91zm15.75 3.45A54.2 54.2 0 0 1 19 12.35c.54 1.06 1.03 2.11 1.47 3.13 2.66-.34 5.72-.18 9.23.72A13.14 13.14 0 0 0 26.6 8zm-2.45 19.24a13.2 13.2 0 0 0 5.41-8.9 23.1 23.1 0 0 0-8.14-.54 53.8 53.8 0 0 1 2.73 9.44zM16.5 3.3c-1.08 0-2.13.13-3.13.37a47.25 47.25 0 0 1 4.56 6.7 30.02 30.02 0 0 0 6.7-4.26A13.14 13.14 0 0 0 16.5 3.3z"/></svg>