<svg xmlns="http://www.w3.org/2000/svg" width="77" height="77" viewBox="0 0 77 77"><path fill="#fff" d="M10.5 72.25A4.75 4.75 0 0 0 15.25 77h57A4.75 4.75 0 0 0 77 72.25V29.5a4.75 4.75 0 0 0-4.75-4.75h-19v-19A4.75 4.75 0 0 0 48.5 1H5.75A4.75 4.75 0 0 0 1 5.75v57a4.75 4.75 0 0 0 4.75 4.75h4.75zM56 25v6.88h11.5v38H56V70H11v-2.5h37.5a4.75 4.75 0 0 0 4.75-4.75V25zM8 58V8h38v50zm19.12 2.37a2.37 2.37 0 1 1 .01 4.75 2.37 2.37 0 0 1-.01-4.75zM72.25 48.5a2.37 2.37 0 1 1 0 4.74 2.37 2.37 0 0 1 0-4.74z"/></svg>