<svg xmlns="http://www.w3.org/2000/svg" width="81" height="84" viewBox="0 0 81 84"><path fill="#fff" d="M49.26 1l10.35 10.35c-1.47 2.42-.87 5.96 1.6 8.44 2.49 2.48 6.02 3.08 8.45 1.6L80 31.75 74.76 37H77v15.5c-2.7.9-4.68 3.88-4.68 7.41 0 3.54 1.98 6.51 4.68 7.42V83H1V67.34c2.71-.9 4.7-3.88 4.7-7.43 0-3.54-1.99-6.52-4.7-7.42V37h71v-3h-5.98a4.82 4.82 0 0 0-1.38-3.96L50.97 16.37a4.83 4.83 0 0 0-6.83 0L26.5 34H16.26zM35.6 28.33L41.26 34H29.93zm8.55-8.54a4.83 4.83 0 0 1 6.83 0l10.25 10.25A4.82 4.82 0 0 1 62.6 34H44.68l-7.38-7.38zM10.83 49.65v20.52c0 2.84 2.3 5.13 5.12 5.13h46.12c2.83 0 5.12-2.3 5.12-5.13V49.65c0-2.83-2.29-5.13-5.12-5.13H15.95a5.13 5.13 0 0 0-5.12 5.13zm7.68-2.56H47v25.65H18.51a5.13 5.13 0 0 1-5.12-5.13v-15.4c0-2.82 2.3-5.12 5.12-5.12zm41 0c2.83 0 5.12 2.3 5.12 5.13V67.6c0 2.83-2.3 5.13-5.12 5.13H49V47.09z"/></svg>