<?xml version="1.0" encoding="UTF-8" standalone="no"?>
<svg
   xmlns:dc="http://purl.org/dc/elements/1.1/"
   xmlns:cc="http://creativecommons.org/ns#"
   xmlns:rdf="http://www.w3.org/1999/02/22-rdf-syntax-ns#"
   xmlns:svg="http://www.w3.org/2000/svg"
   xmlns="http://www.w3.org/2000/svg"
   viewBox="0 0 40 33"
   height="33"
   width="40"
   id="svg2"
   version="1.1">
  <metadata
     id="metadata8">
    <rdf:RDF>
      <cc:Work
         rdf:about="">
        <dc:format>image/svg+xml</dc:format>
        <dc:type
           rdf:resource="http://purl.org/dc/dcmitype/StillImage" />
        <dc:title></dc:title>
      </cc:Work>
    </rdf:RDF>
  </metadata>
  <defs
     id="defs6" />
  <path
     id="path12"
     d="M 9.701056,22.024481 C 4.365476,15.987946 0,10.783868 0,10.459863 0,10.135858 0.955415,7.6498413 2.123144,4.9353815 L 4.246289,0 H 20.07635 35.906411 l 2.046795,4.6271182 C 39.078943,7.1720332 40,9.6766184 40,10.192863 40,11.257484 20.941237,33 20.008025,33 19.674773,33 15.036637,28.061017 9.701056,22.024481 Z M 23.914932,21.25 c 1.834249,-4.2625 3.551909,-8.3125 3.817022,-9 C 28.093467,11.312511 26.166326,11 20.023655,11 c -4.504677,0 -8.040322,0.387983 -7.856988,0.862186 2.186481,5.655458 7.457305,17.122774 7.8733,17.129319 0.296982,0.0047 2.040716,-3.479005 3.874965,-7.741505 z M 12.862588,18.155185 C 9.830422,11.290271 9.563321,11 6.278526,11 H 2.85484 l 1.82258,2.294447 c 4.105205,5.168045 10.766691,12.594776 11.046259,12.315208 0.164606,-0.164607 -1.122884,-3.519118 -2.861091,-7.45447 z M 35.806704,12.83327 C 37.000346,11.158622 36.818647,11 33.706723,11 c -3.247638,0 -3.542079,0.312599 -6.306704,6.69562 -1.595011,3.682592 -3.066565,7.170092 -3.270122,7.75 -0.396998,1.131 9.501843,-9.560933 11.676807,-12.61235 z M 11.289221,6.25 12.792351,2.5 9.295855,2.183654 C 5.188504,1.8120407 5.48159,1.6031468 3.518549,6.301365 L 1.97316,10 H 5.879626 C 9.459875,10 9.911614,9.6868484 11.289221,6.25 Z M 28,9.6221244 C 28,9.4142924 27.318961,7.6142921 26.48658,5.622124 25.034884,2.1477267 24.770332,2 20,2 15.229668,2 14.965116,2.1477267 13.51342,5.622124 12.681039,7.6142921 12,9.4142924 12,9.6221244 12,9.8299554 15.6,10 20,10 c 4.4,0 8,-0.1700446 8,-0.3778756 z m 10,-0.0882 C 38,9.2775834 37.241654,7.4775838 36.314788,5.533924 34.819169,2.3975797 34.198885,1.999997 30.801368,1.999997 H 26.97316 l 1.51342,3.622124 C 29.318961,7.6142891 30,9.4142894 30,9.6221214 c 0,0.207831 1.8,0.377876 4,0.377876 2.2,0 4,-0.209733 4,-0.466073 z"
     style="fill:#868686" />
</svg>
