<?xml version="1.0" encoding="UTF-8" standalone="no"?>
<svg
   xmlns:dc="http://purl.org/dc/elements/1.1/"
   xmlns:cc="http://creativecommons.org/ns#"
   xmlns:rdf="http://www.w3.org/1999/02/22-rdf-syntax-ns#"
   xmlns:svg="http://www.w3.org/2000/svg"
   xmlns="http://www.w3.org/2000/svg"
   viewBox="0 0 39.145733 36.907345"
   height="36.907345"
   width="39.145733"
   id="svg2"
   version="1.1">
  <metadata
     id="metadata8">
    <rdf:RDF>
      <cc:Work
         rdf:about="">
        <dc:format>image/svg+xml</dc:format>
        <dc:type
           rdf:resource="http://purl.org/dc/dcmitype/StillImage" />
        <dc:title></dc:title>
      </cc:Work>
    </rdf:RDF>
  </metadata>
  <defs
     id="defs6" />
  <path
     id="path48"
     d="m 1.7489536,30.25 c 1.42232,-3.7125 3.025852,-7.954161 3.563405,-9.425912 C 6.2578396,18.235484 25.476301,0 27.258962,0 c 2.355733,0 11.886771,10.644939 11.886771,13.275989 0,0.20642 -4.487313,4.526066 -9.971806,9.599214 -9.482402,8.771206 -10.378091,9.34314 -18.25,11.653369 C -1.5076274,38.176954 -1.3212834,38.263851 1.7489536,30.25 Z M 13.81369,31.40815 c 5.450725,-1.584569 5.46758,-1.601722 3.684851,-3.75 C 13.706582,23.088649 9.7243346,19 9.0657096,19 c -0.37823,0 -1.69315,2.477295 -2.922046,5.505099 -1.808337,4.455456 -1.997803,5.790128 -0.993699,7 1.545425,1.862124 1.939938,1.857709 8.6637254,-0.09695 z M 36.145733,12.262475 c 0,-0.839098 -2.017368,-3.5430011 -4.48304,-6.0086733 L 27.179652,1.7707613 19.412693,9.0242451 c -4.271828,3.9894159 -7.76696,7.7159949 -7.76696,8.2812859 0,2.597996 2.675084,1.268992 8.86801,-4.4057 3.692411,-3.3834238 7.03264,-5.8213865 7.422732,-5.4176945 0.390092,0.403692 -2.434763,3.5938365 -6.277456,7.0892105 -5.459522,4.966068 -6.722683,6.619256 -5.778806,7.563133 0.943877,0.943877 2.754835,-0.166919 8.284909,-5.081758 3.89235,-3.459316 7.392797,-5.97387 7.77877,-5.587896 0.385974,0.385973 -2.571113,3.643147 -6.571304,7.238164 -5.805138,5.217143 -7.04229,6.814471 -6.129626,7.914164 0.932201,1.123233 2.599185,0.06544 9.02311,-5.725638 4.333813,-3.906875 7.879661,-7.789944 7.879661,-8.629041 z"
     style="fill:#858585" />
</svg>
