<?xml version="1.0" encoding="UTF-8" standalone="no"?>
<!-- Created with Inkscape (http://www.inkscape.org/) -->

<svg
   xmlns:dc="http://purl.org/dc/elements/1.1/"
   xmlns:cc="http://creativecommons.org/ns#"
   xmlns:rdf="http://www.w3.org/1999/02/22-rdf-syntax-ns#"
   xmlns:svg="http://www.w3.org/2000/svg"
   xmlns="http://www.w3.org/2000/svg"
   xmlns:sodipodi="http://sodipodi.sourceforge.net/DTD/sodipodi-0.dtd"
   xmlns:inkscape="http://www.inkscape.org/namespaces/inkscape"
   version="1.1"
   id="svg2"
   width="39.799007"
   height="40"
   viewBox="0 0 39.799007 40"
   sodipodi:docname="settings.svg"
   inkscape:version="0.92.1 r15371">
  <metadata
     id="metadata8">
    <rdf:RDF>
      <cc:Work
         rdf:about="">
        <dc:format>image/svg+xml</dc:format>
        <dc:type
           rdf:resource="http://purl.org/dc/dcmitype/StillImage" />
        <dc:title></dc:title>
      </cc:Work>
    </rdf:RDF>
  </metadata>
  <defs
     id="defs6" />
  <sodipodi:namedview
     pagecolor="#ffffff"
     bordercolor="#666666"
     borderopacity="1"
     objecttolerance="10"
     gridtolerance="10"
     guidetolerance="10"
     inkscape:pageopacity="0"
     inkscape:pageshadow="2"
     inkscape:window-width="1366"
     inkscape:window-height="705"
     id="namedview4"
     showgrid="false"
     fit-margin-top="0"
     fit-margin-left="0"
     fit-margin-right="0"
     fit-margin-bottom="0"
     inkscape:zoom="5.6190476"
     inkscape:cx="69.762263"
     inkscape:cy="23.915254"
     inkscape:window-x="-8"
     inkscape:window-y="-8"
     inkscape:window-maximized="1"
     inkscape:current-layer="svg2" />
  <path
     style="fill:#868686"
     d="m 15.897856,38.122445 c 0,-3.260304 -2.538769,-4.556134 -6.0648329,-3.09559 -2.63348,1.090823 -3.300003,1.03688 -4.718784,-0.381901 -1.397035,-1.397035 -1.467399,-2.14159 -0.455692,-4.821906 C 6.0274811,26.196326 4.9172581,24 1.7150461,24 0.08716208,24 -0.17322092,23.40006 0.08749108,20.25 c 0.245339,-2.96432 0.764059,-3.814629 2.47581402,-4.058471 2.785213,-0.396757 3.58324,-2.551611 2.127883,-5.74577 C 3.7108951,8.2942488 3.8464491,7.6069628 5.5961921,5.8572208 7.2690141,4.1843973 8.0390041,4.0051723 9.7102801,4.8996124 13.196411,6.7653328 14.906057,6.2089948 15.547856,3 c 0.520199,-2.6009952 1.035869,-3 3.877175,-3 2.742237,0 3.447883,0.4896938 4.32298,3 1.119504,3.2114108 2.982086,3.7462248 6.152134,1.7664977 1.672435,-1.0444532 2.307535,-0.9011183 4.143881,0.9352281 1.97519,1.975189 2.03832,2.375304 0.707407,4.4835022 -2.060833,3.26441 -1.248858,5.485716 2.261912,6.18787 2.699787,0.539957 2.980367,0.940908 2.698775,3.856565 -0.225533,2.335214 -0.878957,3.350676 -2.314264,3.596507 -3.461659,0.592894 -4.629847,3.046025 -2.78866,5.856032 1.504996,2.296914 1.473556,2.577346 -0.511498,4.5624 -1.822586,1.822586 -2.473129,1.95191 -4.704503,0.935228 C 25.604798,33.453721 24.905669,33.67914 23.748011,37 c -0.885638,2.540545 -1.566854,3 -4.44798,3 -2.661551,0 -3.402175,-0.408728 -3.402175,-1.877555 z m 5.819838,-1.884853 c 0.452108,-3.169147 3.75776,-4.751081 6.918578,-3.310916 3.590407,1.635899 5.754199,-0.214658 3.821607,-3.268383 -1.820864,-2.877185 -0.407813,-6.407407 2.896686,-7.236784 3.374173,-0.846863 3.374173,-3.996155 0,-4.843018 -3.274717,-0.821902 -4.650063,-4.353763 -2.796818,-7.182172 1.186307,-1.8105332 1.177837,-2.2861032 -0.059,-3.3125872 -1.124765,-0.933472 -1.88745,-0.921721 -3.448436,0.05313 -2.689469,1.679601 -7.152455,-0.264361 -7.152455,-3.115425 0,-3.0628259 -3.801785,-2.6593706 -4.591541,0.4872662 -0.748929,2.9839718 -4.280115,4.1655338 -7.4226779,2.4836858 -3.075573,-1.645997 -4.727367,0.08459 -3.225954,3.3798322 1.651004,3.623558 0.459972,6.633817 -2.889793,7.30377 -3.91711702,0.783424 -3.89323402,3.940364 0.03634,4.803443 3.398204,0.746371 4.808027,4.403766 2.884687,7.483522 -1.796268,2.876282 0.0809,4.508134 3.4303209,2.982035 3.250389,-1.480976 6.505934,0.120362 7.387776,3.6339 0.782092,3.116105 3.751791,2.875393 4.210681,-0.341301 z M 15.897856,24 c -1.1,-1.1 -2,-2.9 -2,-4 0,-2.236024 3.310727,-6 5.277494,-6 4.896785,0 7.546369,7.039452 3.893765,10.345012 C 20.638853,26.544369 18.331203,26.433347 15.897856,24 Z m 6.819548,-1.642033 c 1.287058,-2.299845 0.324785,-5.177382 -1.975506,-5.907466 -2.292118,-0.72749 -4.844042,1.101589 -4.844042,3.471944 0,3.750831 5.070125,5.561567 6.819548,2.435522 z"
     id="path14"
     inkscape:connector-curvature="0" />
</svg>
