<?xml version="1.0" encoding="UTF-8" standalone="no"?>
<svg
   xmlns:dc="http://purl.org/dc/elements/1.1/"
   xmlns:cc="http://creativecommons.org/ns#"
   xmlns:rdf="http://www.w3.org/1999/02/22-rdf-syntax-ns#"
   xmlns:svg="http://www.w3.org/2000/svg"
   xmlns="http://www.w3.org/2000/svg"
   viewBox="0 0 44 33"
   height="33"
   width="44"
   id="svg2"
   version="1.1">
  <metadata
     id="metadata8">
    <rdf:RDF>
      <cc:Work
         rdf:about="">
        <dc:format>image/svg+xml</dc:format>
        <dc:type
           rdf:resource="http://purl.org/dc/dcmitype/StillImage" />
        <dc:title></dc:title>
      </cc:Work>
    </rdf:RDF>
  </metadata>
  <defs
     id="defs6" />
  <path
     id="path32"
     d="M 7,31 C 5.9,29.9 5,28.1 5,27 c 0,-2.771824 3.497191,-6 6.5,-6 3.700618,0 6.825425,3.541695 6.031925,6.836658 C 16.285089,33.014076 10.69354,34.69354 7,31 Z m 8,-2 c 0.76049,-1.420989 0.76049,-2.579011 0,-4 -1.889013,-3.529653 -8,-2.001906 -8,2 0,4.001906 6.110987,5.529653 8,2 z m 13,2 c -2.219722,-2.219722 -2.500992,-4.195372 -0.997296,-7.005053 0.670273,-1.252416 0.670273,-2.079024 0,-2.493276 C 26.446997,21.158225 26,16.673257 26,11.440983 V 2 H 14 2 v 12 c 0,7.333333 0.388889,12 1,12 0.55,0 1,0.45 1,1 0,0.55 -0.9,1 -2,1 C 0.095238,28 0,27.333333 0,14 V 0 H 14 28 V 2.5 C 28,4.9583333 28.133333,5 36,5 h 8 V 16.5 C 44,27.333333 43.884058,28 42,28 c -1.1,0 -2,-0.45 -2,-1 0,-0.55 0.45,-1 1,-1 0.55,0 1,-2.025 1,-4.5 V 17 H 38 34 V 12 C 34,7.1111111 33.933333,7 31,7 h -3 v 7.437129 7.43713 l 3.387426,-0.549704 C 35.240729,20.69925 39,23.50192 39,27 c 0,2.771824 -3.497191,6 -6.5,6 -1.375,0 -3.4,-0.9 -4.5,-2 z m 8.394023,-2.25 c 1.499113,-2.39421 -0.328971,-5.157955 -3.677626,-5.559932 -3.325695,-0.399221 -5.330245,2.79443 -3.684322,5.869864 1.337966,2.500013 5.717984,2.315618 7.361948,-0.309932 z M 42,11.5 C 42,7.1666667 41.888889,7 39,7 c -2.888889,0 -3,0.1666667 -3,4.5 0,4.333333 0.111111,4.5 3,4.5 2.888889,0 3,-0.166667 3,-4.5 z M 19,27 c 0,-0.55 1.35,-1 3,-1 1.65,0 3,0.45 3,1 0,0.55 -1.35,1 -3,1 -1.65,0 -3,-0.45 -3,-1 z"
     style="fill:#8a8a8a" />
</svg>
